<svg version="1.1" baseProfile="full" width="797.0" height="322.0" viewBox="0 0 797 322" xmlns="http://www.w3.org/2000/svg" xmlns:xlink="http://www.w3.org/1999/xlink" xmlns:ev="http://www.w3.org/2001/xml-events">
<desc >#.interface: fill=lightblue
#.enumeration: fill=lightgreen
#.type: fill=lightgray

[&lt;interface&gt;AuthenticatedRequest|+user?: { id: number; email: string; rol: string; }|]
[Request&lt;P,ResBody,ReqBody,ReqQuery,Locals&gt;]&lt;:--[AuthenticatedRequest]
[Request]&lt;:--[AuthenticatedRequest]
[&lt;interface&gt;AuthenticatedRequest|+user?: { id: number; email: string; rol: Rol; }|]
[Request&lt;P,ResBody,ReqBody,ReqQuery,Locals&gt;]&lt;:--[AuthenticatedRequest]
[Request]&lt;:--[AuthenticatedRequest]
[&lt;interface&gt;AuthenticatedRequest|+user?: { id: number; email: string; rol: string; }|]
[Request&lt;P,ResBody,ReqBody,ReqQuery,Locals&gt;]&lt;:--[AuthenticatedRequest]
[Request]&lt;:--[AuthenticatedRequest]
[&lt;interface&gt;AuthenticatedRequest|+user?: { id: number; email: string; rol: string; }|]
[Request&lt;P,ResBody,ReqBody,ReqQuery,Locals&gt;]&lt;:--[AuthenticatedRequest]
[Request]&lt;:--[AuthenticatedRequest]
[&lt;interface&gt;AuthenticatedRequest|+user?: { id: number; email: string; rol: string; }|]
[Request&lt;P,ResBody,ReqBody,ReqQuery,Locals&gt;]&lt;:--[AuthenticatedRequest]
[Request]&lt;:--[AuthenticatedRequest]
[&lt;interface&gt;AuthenticatedRequest|+user?: { id: number; email: string; rol: string; }|]
[Request&lt;P,ResBody,ReqBody,ReqQuery,Locals&gt;]&lt;:--[AuthenticatedRequest]
[Request]&lt;:--[AuthenticatedRequest]
[&lt;interface&gt;DecodedToken|+id: number;+email: string;+rol: Rol|]
[&lt;interface&gt;AuthenticatedRequest|+user?: DecodedToken|]
[Request&lt;P,ResBody,ReqBody,ReqQuery,Locals&gt;]&lt;:--[AuthenticatedRequest]
[Request]&lt;:--[AuthenticatedRequest]
[&lt;interface&gt;AuthenticatedRequest|+user?: { id: number; email: string; rol: Rol; }|]
[Request&lt;P,ResBody,ReqBody,ReqQuery,Locals&gt;]&lt;:--[AuthenticatedRequest]
[Request]&lt;:--[AuthenticatedRequest]</desc>
<g stroke-width="1.0" text-align="left" font="12pt Helvetica, Arial, sans-serif" font-size="12pt" font-family="Helvetica" font-weight="normal" font-style="normal">
<g font-family="Helvetica" font-size="12pt" font-weight="bold" font-style="normal" stroke-width="3.0" stroke-linejoin="round" stroke-linecap="round" stroke="#33322E">
<g stroke="transparent" fill="transparent">
<rect x="0.0" y="0.0" height="322.0" width="797.0" stroke="none"></rect>
</g>
<g transform="translate(8, 8)" fill="#33322E">
<g transform="translate(20, 20)" fill="#eee8d5" font-family="Helvetica" font-size="12pt" font-weight="normal" font-style="normal">
<g stroke-dasharray="6 6">
<path d="M161.3 74.6 L64 125 L208.5 173.46770833333335 L208.5 173.5 " fill="none"></path>
</g>
<path d="M163.7 79.4 L161.3 74.6 L158.8 69.9 L173.1 68.5 Z"></path>
<g stroke-dasharray="6 6">
<path d="M481.3 74.6 L384 125 L364.12422360248445 145 L364.1 145.0 " fill="none"></path>
</g>
<path d="M483.7 79.4 L481.3 74.6 L478.8 69.9 L493.1 68.5 Z"></path>
<g stroke-dasharray="6 6">
<path d="M171.1 76.3 L104 125 L208.5 167.06125 L208.5 167.1 " fill="none"></path>
</g>
<path d="M174.3 80.6 L171.1 76.3 L168.0 72.0 L181.9 68.5 Z"></path>
<g stroke-dasharray="6 6">
<path d="M491.1 76.3 L424 125 L394.18633540372673 145 L394.2 145.0 " fill="none"></path>
</g>
<path d="M494.3 80.6 L491.1 76.3 L488.0 72.0 L501.9 68.5 Z"></path>
<g stroke-dasharray="6 6">
<path d="M182.3 78.8 L144 125 L208.5 157.4515625 L208.5 157.5 " fill="none"></path>
</g>
<path d="M186.4 82.2 L182.3 78.8 L178.1 75.4 L190.8 68.5 Z"></path>
<g stroke-dasharray="6 6">
<path d="M502.3 78.8 L464 125 L399.5 157.4515625 L399.5 157.5 " fill="none"></path>
</g>
<path d="M506.4 82.2 L502.3 78.8 L498.1 75.4 L510.8 68.5 Z"></path>
<g stroke-dasharray="6 6">
<path d="M196.0 81.4 L184 125 L213.8136645962733 145 L213.8 145.0 " fill="none"></path>
</g>
<path d="M201.2 82.8 L196.0 81.4 L190.9 79.9 L199.6 68.5 Z"></path>
<g stroke-dasharray="6 6">
<path d="M516.0 81.4 L504 125 L399.5 167.06125 L399.5 167.1 " fill="none"></path>
</g>
<path d="M521.2 82.8 L516.0 81.4 L510.9 79.9 L519.6 68.5 Z"></path>
<g stroke-dasharray="6 6">
<path d="M212.0 81.4 L224 125 L243.87577639751552 145 L243.9 145.0 " fill="none"></path>
</g>
<path d="M217.1 79.9 L212.0 81.4 L206.8 82.8 L208.4 68.5 Z"></path>
<g stroke-dasharray="6 6">
<path d="M532.0 81.4 L544 125 L399.5 173.46770833333335 L399.5 173.5 " fill="none"></path>
</g>
<path d="M537.1 79.9 L532.0 81.4 L526.8 82.8 L528.4 68.5 Z"></path>
<g stroke-dasharray="6 6">
<path d="M225.7 78.8 L264 125 L273.9378881987578 145 L273.9 145.0 " fill="none"></path>
</g>
<path d="M229.9 75.4 L225.7 78.8 L221.6 82.2 L217.2 68.5 Z"></path>
<g stroke-dasharray="6 6">
<path d="M545.7 78.8 L584 125 L399.5 178.04375 L399.5 178.0 " fill="none"></path>
</g>
<path d="M549.9 75.4 L545.7 78.8 L541.6 82.2 L537.2 68.5 Z"></path>
<g stroke-dasharray="6 6">
<path d="M236.9 76.3 L304 125 L304 145 L304.0 145.0 " fill="none"></path>
</g>
<path d="M240.0 72.0 L236.9 76.3 L233.7 80.6 L226.1 68.5 Z"></path>
<g stroke-dasharray="6 6">
<path d="M556.9 76.3 L624 125 L399.5 181.47578125 L399.5 181.5 " fill="none"></path>
</g>
<path d="M560.0 72.0 L556.9 76.3 L553.7 80.6 L546.1 68.5 Z"></path>
<g stroke-dasharray="6 6">
<path d="M246.7 74.6 L344 125 L334.0621118012422 145 L334.1 145.0 " fill="none"></path>
</g>
<path d="M249.2 69.9 L246.7 74.6 L244.3 79.4 L234.9 68.5 Z"></path>
<g stroke-dasharray="6 6">
<path d="M566.7 74.6 L664 125 L399.5 184.14513888888888 L399.5 184.1 " fill="none"></path>
</g>
<path d="M569.2 69.9 L566.7 74.6 L564.3 79.4 L554.9 68.5 Z"></path>
<g data-name="AuthenticatedRequest">
<g fill="lightblue" stroke="#33322E" data-name="AuthenticatedRequest">
<rect x="208.5" y="145.0" height="121.0" width="191.0" data-name="AuthenticatedRequest"></rect>
<path d="M208.5 177.0 L399.5 177.0" fill="none" data-name="AuthenticatedRequest"></path>
<path d="M208.5 258.0 L399.5 258.0" fill="none" data-name="AuthenticatedRequest"></path>
</g>
<g transform="translate(208.5, 145)" font-family="Helvetica" font-size="12pt" font-weight="normal" font-style="normal" data-name="AuthenticatedRequest" data-compartment="0">
<g transform="translate(8, 8)" fill="#33322E" text-align="center" data-name="AuthenticatedRequest" data-compartment="0">
<a id="src\middlewares\roleMiddleware.ts.AuthenticatedRequest" xlink:href="src\middlewares\roleMiddleware.ts"><text x="87.5" y="14.1" stroke="none" text-anchor="middle" data-name="AuthenticatedRequest" data-compartment="0">AuthenticatedRequest</text></a>

</g>
</g>
<g transform="translate(208.5, 177)" font-family="Helvetica" font-size="12pt" font-weight="normal" font-style="normal" data-name="AuthenticatedRequest" data-compartment="1">
<g transform="translate(8, 8)" fill="#33322E" text-align="left" data-name="AuthenticatedRequest" data-compartment="1">
<text x="0.0" y="14.1" stroke="none" data-name="AuthenticatedRequest" data-compartment="1">+user?: { id: number</text>
<text x="0.0" y="30.3" stroke="none" data-name="AuthenticatedRequest" data-compartment="1">email: string</text>
<text x="0.0" y="46.5" stroke="none" data-name="AuthenticatedRequest" data-compartment="1">rol: string</text>
<text x="0.0" y="62.7" stroke="none" data-name="AuthenticatedRequest" data-compartment="1">}</text>

</g>
</g>
<g transform="translate(208.5, 258)" font-family="Helvetica" font-size="12pt" font-weight="normal" font-style="normal" data-name="AuthenticatedRequest" data-compartment="2">
<g transform="translate(8, 8)" fill="#33322E" data-name="AuthenticatedRequest" data-compartment="2">

</g>
</g>
</g>
<g data-name="Request&lt;P,ResBody,ReqBody,ReqQuery,Locals&gt;">
<g fill="#eee8d5" stroke="#33322E" data-name="Request&lt;P,ResBody,ReqBody,ReqQuery,Locals&gt;">
<rect x="0.0" y="36.5" height="32.0" width="408.0" data-name="Request&lt;P,ResBody,ReqBody,ReqQuery,Locals&gt;"></rect>
</g>
<g transform="translate(0, 36.5)" font-family="Helvetica" font-size="12pt" font-weight="bold" font-style="normal" data-name="Request&lt;P,ResBody,ReqBody,ReqQuery,Locals&gt;" data-compartment="0">
<g transform="translate(8, 8)" fill="#33322E" text-align="center" data-name="Request&lt;P,ResBody,ReqBody,ReqQuery,Locals&gt;" data-compartment="0">
<text x="196.0" y="14.1" stroke="none" text-anchor="middle" data-name="Request&lt;P,ResBody,ReqBody,ReqQuery,Locals&gt;" data-compartment="0">Request&lt;P,ResBody,ReqBody,ReqQuery,Locals&gt;</text>

</g>
</g>
</g>
<g data-name="Request">
<g fill="#eee8d5" stroke="#33322E" data-name="Request">
<rect x="483.0" y="36.5" height="32.0" width="82.0" data-name="Request"></rect>
</g>
<g transform="translate(483, 36.5)" font-family="Helvetica" font-size="12pt" font-weight="bold" font-style="normal" data-name="Request" data-compartment="0">
<g transform="translate(8, 8)" fill="#33322E" text-align="center" data-name="Request" data-compartment="0">
<text x="33.0" y="14.1" stroke="none" text-anchor="middle" data-name="Request" data-compartment="0">Request</text>

</g>
</g>
</g>
<g data-name="DecodedToken">
<g fill="lightblue" stroke="#33322E" data-name="DecodedToken">
<rect x="605.0" y="0.0" height="105.0" width="136.0" data-name="DecodedToken"></rect>
<path d="M605.0 32.0 L741.0 32.0" fill="none" data-name="DecodedToken"></path>
<path d="M605.0 97.0 L741.0 97.0" fill="none" data-name="DecodedToken"></path>
</g>
<g transform="translate(605, 0)" font-family="Helvetica" font-size="12pt" font-weight="normal" font-style="normal" data-name="DecodedToken" data-compartment="0">
<g transform="translate(8, 8)" fill="#33322E" text-align="center" data-name="DecodedToken" data-compartment="0">
<a id="src\middlewares\authMiddleware.ts.DecodedToken" xlink:href="src\middlewares\authMiddleware.ts"><text x="60.0" y="14.1" stroke="none" text-anchor="middle" data-name="DecodedToken" data-compartment="0">DecodedToken</text></a>

</g>
</g>
<g transform="translate(605, 32)" font-family="Helvetica" font-size="12pt" font-weight="normal" font-style="normal" data-name="DecodedToken" data-compartment="1">
<g transform="translate(8, 8)" fill="#33322E" text-align="left" data-name="DecodedToken" data-compartment="1">
<text x="0.0" y="14.1" stroke="none" data-name="DecodedToken" data-compartment="1">+id: number</text>
<text x="0.0" y="30.3" stroke="none" data-name="DecodedToken" data-compartment="1">+email: string</text>
<text x="0.0" y="46.5" stroke="none" data-name="DecodedToken" data-compartment="1">+rol: Rol</text>

</g>
</g>
<g transform="translate(605, 97)" font-family="Helvetica" font-size="12pt" font-weight="normal" font-style="normal" data-name="DecodedToken" data-compartment="2">
<g transform="translate(8, 8)" fill="#33322E" data-name="DecodedToken" data-compartment="2">

</g>
</g>
</g>
</g>
</g>
</g>
</g>
</svg>
